<svg width="38" height="38" viewBox="0 0 38 38" fill="none" xmlns="http://www.w3.org/2000/svg">
<path d="M19.2274 0.55542C22.0002 0.557022 24.7366 1.1864 27.2312 2.39633C29.7259 3.60625 31.914 5.3653 33.6315 7.54147C35.3489 9.71764 36.551 12.2544 37.1476 14.9614C37.7442 17.6684 37.7198 20.4753 37.0762 23.1716C36.4326 25.8678 35.1865 28.3832 33.4314 30.5292C31.6764 32.6752 29.458 34.3959 26.9426 35.5623C24.4273 36.7286 21.6804 37.3103 18.908 37.2637C16.1357 37.2171 13.4099 36.5434 10.9352 35.2931L10.6575 35.144L2.29184 37.2319C2.13084 37.2724 1.96297 37.2774 1.79982 37.2468C1.63668 37.2161 1.48213 37.1504 1.34685 37.0542C1.21157 36.958 1.09878 36.8336 1.01625 36.6896C0.933734 36.5456 0.88345 36.3854 0.868872 36.2201V36.0319L0.901004 35.8415L2.98955 27.4806L2.84496 27.2052C1.79468 25.1383 1.14816 22.8902 0.940021 20.5812L0.882643 19.7047L0.866577 18.9109C0.866577 14.0427 2.80102 9.37392 6.24435 5.93161C9.68768 2.48929 14.3578 0.55542 19.2274 0.55542ZM20.375 21.2053H13.4897L13.2831 21.2237C13.0185 21.2715 12.7792 21.4108 12.6068 21.6171C12.4344 21.8234 12.34 22.0837 12.34 22.3525C12.34 22.6213 12.4344 22.8816 12.6068 23.0879C12.7792 23.2942 13.0185 23.4335 13.2831 23.4814L13.4897 23.4997H20.375L20.5816 23.4814C20.8461 23.4335 21.0855 23.2942 21.2579 23.0879C21.4302 22.8816 21.5246 22.6213 21.5246 22.3525C21.5246 22.0837 21.4302 21.8234 21.2579 21.6171C21.0855 21.4108 20.8461 21.2715 20.5816 21.2237L20.375 21.2053ZM24.9652 14.322H13.4897L13.2831 14.3404C13.0185 14.3883 12.7792 14.5275 12.6068 14.7338C12.4344 14.9401 12.34 15.2004 12.34 15.4692C12.34 15.738 12.4344 15.9983 12.6068 16.2046C12.7792 16.4109 13.0185 16.5502 13.2831 16.5981L13.4897 16.6164H24.9652L25.1718 16.5981C25.4364 16.5502 25.6757 16.4109 25.8481 16.2046C26.0204 15.9983 26.1149 15.738 26.1149 15.4692C26.1149 15.2004 26.0204 14.9401 25.8481 14.7338C25.6757 14.5275 25.4364 14.3883 25.1718 14.3404L24.9652 14.322Z" fill="white"/>
</svg>
